<mxfile host="app.diagrams.net" agent="Mozilla/5.0 (Windows NT 10.0; Win64; x64; rv:129.0) Gecko/20100101 Firefox/129.0" version="24.7.7">
  <diagram name="Page-1" id="lQGOSBgDbE9h0LmsC_VI">
    <mxGraphModel dx="3953" dy="2597" grid="1" gridSize="10" guides="1" tooltips="1" connect="1" arrows="1" fold="1" page="1" pageScale="1" pageWidth="827" pageHeight="1169" math="1" shadow="0">
      <root>
        <mxCell id="0" />
        <mxCell id="1" parent="0" />
        <mxCell id="anaQYyQ8jXdlayR_0g4W-3" value="" style="rounded=1;whiteSpace=wrap;html=1;arcSize=20;" vertex="1" parent="1">
          <mxGeometry x="1670" y="1885" width="520" height="175" as="geometry" />
        </mxCell>
        <mxCell id="tjZcxOWp3YzsWdB4Y_JX-81" value="" style="rounded=1;whiteSpace=wrap;html=1;fillColor=#f8cecc;strokeColor=#b85450;fillOpacity=30;" parent="1" vertex="1">
          <mxGeometry x="2810" y="1890" width="1140" height="890" as="geometry" />
        </mxCell>
        <mxCell id="tjZcxOWp3YzsWdB4Y_JX-91" value="" style="rounded=1;whiteSpace=wrap;html=1;fillColor=#dae8fc;strokeColor=#6c8ebf;fillOpacity=40;" parent="1" vertex="1">
          <mxGeometry x="1630" y="1110" width="2320" height="720" as="geometry" />
        </mxCell>
        <mxCell id="uQwbevBOTr0eA4SZRO5Q-281" value="" style="rounded=1;whiteSpace=wrap;html=1;fillColor=#f8cecc;strokeColor=#b85450;fillOpacity=30;" parent="1" vertex="1">
          <mxGeometry x="2250" y="570" width="1700" height="490" as="geometry" />
        </mxCell>
        <mxCell id="uQwbevBOTr0eA4SZRO5Q-268" value="" style="rounded=1;whiteSpace=wrap;html=1;arcSize=20;" parent="1" vertex="1">
          <mxGeometry x="1654" y="630" width="520" height="365" as="geometry" />
        </mxCell>
        <mxCell id="FphNVmNiipGsw1vmUYAS-104" value="" style="endArrow=classic;html=1;rounded=0;strokeWidth=5;" parent="1" edge="1">
          <mxGeometry width="50" height="50" relative="1" as="geometry">
            <mxPoint x="2380" y="1020" as="sourcePoint" />
            <mxPoint x="3260" y="1020" as="targetPoint" />
          </mxGeometry>
        </mxCell>
        <mxCell id="FphNVmNiipGsw1vmUYAS-105" value="" style="endArrow=classic;html=1;rounded=0;strokeWidth=5;" parent="1" edge="1">
          <mxGeometry width="50" height="50" relative="1" as="geometry">
            <mxPoint x="2381" y="1021" as="sourcePoint" />
            <mxPoint x="2381" y="622" as="targetPoint" />
          </mxGeometry>
        </mxCell>
        <mxCell id="jDUtmc2_KI0zMrj57jFm-4" value="" style="endArrow=none;html=1;rounded=0;strokeWidth=6;" parent="1" edge="1">
          <mxGeometry width="50" height="50" relative="1" as="geometry">
            <mxPoint x="2420" y="1040" as="sourcePoint" />
            <mxPoint x="2420" y="1000" as="targetPoint" />
          </mxGeometry>
        </mxCell>
        <mxCell id="jDUtmc2_KI0zMrj57jFm-5" value="" style="endArrow=none;html=1;rounded=0;strokeWidth=6;" parent="1" edge="1">
          <mxGeometry width="50" height="50" relative="1" as="geometry">
            <mxPoint x="2480" y="1040" as="sourcePoint" />
            <mxPoint x="2480" y="1000" as="targetPoint" />
          </mxGeometry>
        </mxCell>
        <mxCell id="jDUtmc2_KI0zMrj57jFm-6" value="" style="endArrow=none;html=1;rounded=0;strokeWidth=6;" parent="1" edge="1">
          <mxGeometry width="50" height="50" relative="1" as="geometry">
            <mxPoint x="2540" y="1040" as="sourcePoint" />
            <mxPoint x="2540" y="1000" as="targetPoint" />
          </mxGeometry>
        </mxCell>
        <mxCell id="jDUtmc2_KI0zMrj57jFm-7" value="" style="endArrow=none;html=1;rounded=0;strokeWidth=6;" parent="1" edge="1">
          <mxGeometry width="50" height="50" relative="1" as="geometry">
            <mxPoint x="2600" y="1040" as="sourcePoint" />
            <mxPoint x="2600" y="1000" as="targetPoint" />
          </mxGeometry>
        </mxCell>
        <mxCell id="jDUtmc2_KI0zMrj57jFm-9" value="" style="endArrow=none;html=1;rounded=0;strokeWidth=6;" parent="1" edge="1">
          <mxGeometry width="50" height="50" relative="1" as="geometry">
            <mxPoint x="2720" y="1040" as="sourcePoint" />
            <mxPoint x="2720" y="1000" as="targetPoint" />
          </mxGeometry>
        </mxCell>
        <mxCell id="jDUtmc2_KI0zMrj57jFm-10" value="" style="endArrow=none;html=1;rounded=0;strokeWidth=6;" parent="1" edge="1">
          <mxGeometry width="50" height="50" relative="1" as="geometry">
            <mxPoint x="2780" y="1040" as="sourcePoint" />
            <mxPoint x="2780" y="1000" as="targetPoint" />
          </mxGeometry>
        </mxCell>
        <mxCell id="jDUtmc2_KI0zMrj57jFm-11" value="" style="endArrow=none;html=1;rounded=0;strokeWidth=6;" parent="1" edge="1">
          <mxGeometry width="50" height="50" relative="1" as="geometry">
            <mxPoint x="2840" y="1040" as="sourcePoint" />
            <mxPoint x="2840" y="1000" as="targetPoint" />
          </mxGeometry>
        </mxCell>
        <mxCell id="jDUtmc2_KI0zMrj57jFm-12" value="" style="endArrow=none;html=1;rounded=0;strokeWidth=6;" parent="1" edge="1">
          <mxGeometry width="50" height="50" relative="1" as="geometry">
            <mxPoint x="2900" y="1040" as="sourcePoint" />
            <mxPoint x="2900" y="1000" as="targetPoint" />
          </mxGeometry>
        </mxCell>
        <mxCell id="jDUtmc2_KI0zMrj57jFm-13" value="" style="endArrow=none;html=1;rounded=0;strokeWidth=6;" parent="1" edge="1">
          <mxGeometry width="50" height="50" relative="1" as="geometry">
            <mxPoint x="2960" y="1040" as="sourcePoint" />
            <mxPoint x="2960" y="1000" as="targetPoint" />
          </mxGeometry>
        </mxCell>
        <mxCell id="jDUtmc2_KI0zMrj57jFm-14" value="" style="endArrow=none;html=1;rounded=0;strokeWidth=6;" parent="1" edge="1">
          <mxGeometry width="50" height="50" relative="1" as="geometry">
            <mxPoint x="3020" y="1040" as="sourcePoint" />
            <mxPoint x="3020" y="1000" as="targetPoint" />
          </mxGeometry>
        </mxCell>
        <mxCell id="jDUtmc2_KI0zMrj57jFm-15" value="" style="endArrow=none;html=1;rounded=0;strokeWidth=6;" parent="1" edge="1">
          <mxGeometry width="50" height="50" relative="1" as="geometry">
            <mxPoint x="3080" y="1040" as="sourcePoint" />
            <mxPoint x="3080" y="1000" as="targetPoint" />
          </mxGeometry>
        </mxCell>
        <mxCell id="jDUtmc2_KI0zMrj57jFm-16" value="" style="endArrow=none;html=1;rounded=0;strokeWidth=6;" parent="1" edge="1">
          <mxGeometry width="50" height="50" relative="1" as="geometry">
            <mxPoint x="3140" y="1040" as="sourcePoint" />
            <mxPoint x="3140" y="1000" as="targetPoint" />
          </mxGeometry>
        </mxCell>
        <mxCell id="jDUtmc2_KI0zMrj57jFm-22" value="" style="endArrow=none;html=1;rounded=0;strokeWidth=6;" parent="1" edge="1">
          <mxGeometry width="50" height="50" relative="1" as="geometry">
            <mxPoint x="3200" y="1040" as="sourcePoint" />
            <mxPoint x="3200" y="1000" as="targetPoint" />
          </mxGeometry>
        </mxCell>
        <mxCell id="uQwbevBOTr0eA4SZRO5Q-2" value="&lt;font style=&quot;font-size: 30px;&quot;&gt;$$Disparity$$&lt;/font&gt;" style="text;html=1;strokeColor=none;fillColor=none;align=center;verticalAlign=middle;whiteSpace=wrap;rounded=0;" parent="1" vertex="1">
          <mxGeometry x="3210" y="980" width="270" height="100" as="geometry" />
        </mxCell>
        <mxCell id="uQwbevBOTr0eA4SZRO5Q-3" value="" style="endArrow=classic;html=1;rounded=0;strokeWidth=5;" parent="1" edge="1">
          <mxGeometry width="50" height="50" relative="1" as="geometry">
            <mxPoint x="1822" y="1700" as="sourcePoint" />
            <mxPoint x="2702" y="1700" as="targetPoint" />
          </mxGeometry>
        </mxCell>
        <mxCell id="uQwbevBOTr0eA4SZRO5Q-4" value="" style="endArrow=classic;html=1;rounded=0;strokeWidth=5;" parent="1" edge="1">
          <mxGeometry width="50" height="50" relative="1" as="geometry">
            <mxPoint x="1823" y="1701" as="sourcePoint" />
            <mxPoint x="1823" y="1302" as="targetPoint" />
          </mxGeometry>
        </mxCell>
        <mxCell id="uQwbevBOTr0eA4SZRO5Q-6" value="" style="endArrow=none;html=1;rounded=0;strokeWidth=6;" parent="1" edge="1">
          <mxGeometry width="50" height="50" relative="1" as="geometry">
            <mxPoint x="1862" y="1720" as="sourcePoint" />
            <mxPoint x="1862" y="1680" as="targetPoint" />
          </mxGeometry>
        </mxCell>
        <mxCell id="uQwbevBOTr0eA4SZRO5Q-7" value="" style="endArrow=none;html=1;rounded=0;strokeWidth=6;" parent="1" edge="1">
          <mxGeometry width="50" height="50" relative="1" as="geometry">
            <mxPoint x="1922" y="1720" as="sourcePoint" />
            <mxPoint x="1922" y="1680" as="targetPoint" />
          </mxGeometry>
        </mxCell>
        <mxCell id="uQwbevBOTr0eA4SZRO5Q-8" value="" style="endArrow=none;html=1;rounded=0;strokeWidth=6;" parent="1" edge="1">
          <mxGeometry width="50" height="50" relative="1" as="geometry">
            <mxPoint x="1982" y="1720" as="sourcePoint" />
            <mxPoint x="1982" y="1680" as="targetPoint" />
          </mxGeometry>
        </mxCell>
        <mxCell id="uQwbevBOTr0eA4SZRO5Q-9" value="" style="endArrow=none;html=1;rounded=0;strokeWidth=6;" parent="1" edge="1">
          <mxGeometry width="50" height="50" relative="1" as="geometry">
            <mxPoint x="2042" y="1720" as="sourcePoint" />
            <mxPoint x="2042" y="1680" as="targetPoint" />
          </mxGeometry>
        </mxCell>
        <mxCell id="uQwbevBOTr0eA4SZRO5Q-11" value="" style="endArrow=none;html=1;rounded=0;strokeWidth=6;" parent="1" edge="1">
          <mxGeometry width="50" height="50" relative="1" as="geometry">
            <mxPoint x="2162" y="1720" as="sourcePoint" />
            <mxPoint x="2162" y="1680" as="targetPoint" />
          </mxGeometry>
        </mxCell>
        <mxCell id="uQwbevBOTr0eA4SZRO5Q-12" value="" style="endArrow=none;html=1;rounded=0;strokeWidth=6;" parent="1" edge="1">
          <mxGeometry width="50" height="50" relative="1" as="geometry">
            <mxPoint x="2222" y="1720" as="sourcePoint" />
            <mxPoint x="2222" y="1680" as="targetPoint" />
          </mxGeometry>
        </mxCell>
        <mxCell id="uQwbevBOTr0eA4SZRO5Q-13" value="" style="endArrow=none;html=1;rounded=0;strokeWidth=6;" parent="1" edge="1">
          <mxGeometry width="50" height="50" relative="1" as="geometry">
            <mxPoint x="2282" y="1720" as="sourcePoint" />
            <mxPoint x="2282" y="1680" as="targetPoint" />
          </mxGeometry>
        </mxCell>
        <mxCell id="uQwbevBOTr0eA4SZRO5Q-14" value="" style="endArrow=none;html=1;rounded=0;strokeWidth=6;" parent="1" edge="1">
          <mxGeometry width="50" height="50" relative="1" as="geometry">
            <mxPoint x="2342" y="1720" as="sourcePoint" />
            <mxPoint x="2342" y="1680" as="targetPoint" />
          </mxGeometry>
        </mxCell>
        <mxCell id="uQwbevBOTr0eA4SZRO5Q-15" value="" style="endArrow=none;html=1;rounded=0;strokeWidth=6;" parent="1" edge="1">
          <mxGeometry width="50" height="50" relative="1" as="geometry">
            <mxPoint x="2402" y="1720" as="sourcePoint" />
            <mxPoint x="2402" y="1680" as="targetPoint" />
          </mxGeometry>
        </mxCell>
        <mxCell id="uQwbevBOTr0eA4SZRO5Q-16" value="" style="endArrow=none;html=1;rounded=0;strokeWidth=6;" parent="1" edge="1">
          <mxGeometry width="50" height="50" relative="1" as="geometry">
            <mxPoint x="2462" y="1720" as="sourcePoint" />
            <mxPoint x="2462" y="1680" as="targetPoint" />
          </mxGeometry>
        </mxCell>
        <mxCell id="uQwbevBOTr0eA4SZRO5Q-17" value="" style="endArrow=none;html=1;rounded=0;strokeWidth=6;" parent="1" edge="1">
          <mxGeometry width="50" height="50" relative="1" as="geometry">
            <mxPoint x="2522" y="1720" as="sourcePoint" />
            <mxPoint x="2522" y="1680" as="targetPoint" />
          </mxGeometry>
        </mxCell>
        <mxCell id="uQwbevBOTr0eA4SZRO5Q-18" value="" style="endArrow=none;html=1;rounded=0;strokeWidth=6;" parent="1" edge="1">
          <mxGeometry width="50" height="50" relative="1" as="geometry">
            <mxPoint x="2582" y="1720" as="sourcePoint" />
            <mxPoint x="2582" y="1680" as="targetPoint" />
          </mxGeometry>
        </mxCell>
        <mxCell id="uQwbevBOTr0eA4SZRO5Q-19" value="" style="endArrow=none;html=1;rounded=0;strokeWidth=6;" parent="1" edge="1">
          <mxGeometry width="50" height="50" relative="1" as="geometry">
            <mxPoint x="2642" y="1720" as="sourcePoint" />
            <mxPoint x="2642" y="1680" as="targetPoint" />
          </mxGeometry>
        </mxCell>
        <mxCell id="uQwbevBOTr0eA4SZRO5Q-28" value="" style="endArrow=classic;startArrow=classic;html=1;rounded=0;fontSize=16;strokeWidth=4;strokeColor=#EBEB00;shadow=1;shadowOpacity=100;shadowOffsetX=0;shadowOffsetY=0;shadowBlur=1;" parent="1" edge="1">
          <mxGeometry width="50" height="50" relative="1" as="geometry">
            <mxPoint x="2156.9999999999995" y="1660" as="sourcePoint" />
            <mxPoint x="2158" y="1600" as="targetPoint" />
          </mxGeometry>
        </mxCell>
        <mxCell id="uQwbevBOTr0eA4SZRO5Q-34" value="\(\text{Penalty }P_1\)" style="text;html=1;align=center;verticalAlign=middle;whiteSpace=wrap;rounded=0;fontSize=42;fontColor=#EBEB00;labelBorderColor=none;textShadow=1;strokeColor=none;shadowOpacity=100;shadowOffsetX=0;shadowOffsetY=0;shadowBlur=1;" parent="1" vertex="1">
          <mxGeometry x="1764" y="875" width="260" height="80" as="geometry" />
        </mxCell>
        <mxCell id="uQwbevBOTr0eA4SZRO5Q-37" value="" style="endArrow=classic;startArrow=classic;html=1;rounded=0;fontSize=16;strokeWidth=4;fontColor=#CC0000;strokeColor=#CC0000;" parent="1" edge="1">
          <mxGeometry width="50" height="50" relative="1" as="geometry">
            <mxPoint x="2230" y="1330" as="sourcePoint" />
            <mxPoint x="2230" y="1180" as="targetPoint" />
          </mxGeometry>
        </mxCell>
        <mxCell id="uQwbevBOTr0eA4SZRO5Q-39" value="" style="endArrow=none;html=1;rounded=0;strokeWidth=4;dashed=1;dashPattern=1 1;" parent="1" edge="1">
          <mxGeometry width="50" height="50" relative="1" as="geometry">
            <mxPoint x="1860" y="1420" as="sourcePoint" />
            <mxPoint x="2630" y="1430" as="targetPoint" />
            <Array as="points">
              <mxPoint x="1920" y="1400" />
              <mxPoint x="1980" y="1410" />
              <mxPoint x="2040" y="1630" />
              <mxPoint x="2100" y="1490" />
              <mxPoint x="2160" y="1700" />
              <mxPoint x="2220" y="1350" />
              <mxPoint x="2280" y="1330" />
              <mxPoint x="2340" y="1330" />
              <mxPoint x="2400" y="1430" />
              <mxPoint x="2460" y="1430" />
              <mxPoint x="2520" y="1350" />
              <mxPoint x="2580" y="1430" />
            </Array>
          </mxGeometry>
        </mxCell>
        <mxCell id="uQwbevBOTr0eA4SZRO5Q-41" value="" style="endArrow=none;html=1;rounded=0;strokeWidth=8;" parent="1" edge="1">
          <mxGeometry width="50" height="50" relative="1" as="geometry">
            <mxPoint x="1860" y="1241" as="sourcePoint" />
            <mxPoint x="2630" y="1251" as="targetPoint" />
            <Array as="points">
              <mxPoint x="1920" y="1221" />
              <mxPoint x="1980" y="1231" />
              <mxPoint x="2040" y="1530" />
              <mxPoint x="2100" y="1490" />
              <mxPoint x="2160" y="1590" />
              <mxPoint x="2220" y="1171" />
              <mxPoint x="2280" y="1151" />
              <mxPoint x="2340" y="1151" />
              <mxPoint x="2400" y="1251" />
              <mxPoint x="2460" y="1251" />
              <mxPoint x="2520" y="1171" />
              <mxPoint x="2580" y="1251" />
            </Array>
          </mxGeometry>
        </mxCell>
        <mxCell id="uQwbevBOTr0eA4SZRO5Q-43" value="" style="endArrow=classic;startArrow=classic;html=1;rounded=0;fontSize=16;strokeWidth=4;strokeColor=#EBEB00;shadow=1;shadowOpacity=100;shadowOffsetX=0;shadowOffsetY=0;shadowBlur=1;" parent="1" edge="1">
          <mxGeometry width="50" height="50" relative="1" as="geometry">
            <mxPoint x="2046.9999999999995" y="1600" as="sourcePoint" />
            <mxPoint x="2048" y="1540" as="targetPoint" />
          </mxGeometry>
        </mxCell>
        <mxCell id="uQwbevBOTr0eA4SZRO5Q-44" value="" style="endArrow=classic;startArrow=classic;html=1;rounded=0;fontSize=16;strokeWidth=4;fontColor=#CC0000;strokeColor=#CC0000;" parent="1" edge="1">
          <mxGeometry width="50" height="50" relative="1" as="geometry">
            <mxPoint x="2400" y="1410" as="sourcePoint" />
            <mxPoint x="2400" y="1260" as="targetPoint" />
          </mxGeometry>
        </mxCell>
        <mxCell id="uQwbevBOTr0eA4SZRO5Q-45" value="" style="endArrow=classic;startArrow=classic;html=1;rounded=0;fontSize=16;strokeWidth=4;fontColor=#CC0000;strokeColor=#CC0000;" parent="1" edge="1">
          <mxGeometry width="50" height="50" relative="1" as="geometry">
            <mxPoint x="1734" y="855" as="sourcePoint" />
            <mxPoint x="1734" y="705" as="targetPoint" />
          </mxGeometry>
        </mxCell>
        <mxCell id="uQwbevBOTr0eA4SZRO5Q-46" value="" style="endArrow=classic;startArrow=classic;html=1;rounded=0;fontSize=16;strokeWidth=4;fontColor=#CC0000;strokeColor=#CC0000;" parent="1" edge="1">
          <mxGeometry width="50" height="50" relative="1" as="geometry">
            <mxPoint x="2610" y="1410" as="sourcePoint" />
            <mxPoint x="2610" y="1260" as="targetPoint" />
          </mxGeometry>
        </mxCell>
        <mxCell id="uQwbevBOTr0eA4SZRO5Q-133" value="" style="endArrow=classic;html=1;rounded=0;strokeWidth=5;" parent="1" edge="1">
          <mxGeometry width="50" height="50" relative="1" as="geometry">
            <mxPoint x="3020" y="1699" as="sourcePoint" />
            <mxPoint x="3900" y="1699" as="targetPoint" />
          </mxGeometry>
        </mxCell>
        <mxCell id="uQwbevBOTr0eA4SZRO5Q-134" value="" style="endArrow=classic;html=1;rounded=0;strokeWidth=5;" parent="1" edge="1">
          <mxGeometry width="50" height="50" relative="1" as="geometry">
            <mxPoint x="3021" y="1700" as="sourcePoint" />
            <mxPoint x="3021" y="1301" as="targetPoint" />
          </mxGeometry>
        </mxCell>
        <mxCell id="uQwbevBOTr0eA4SZRO5Q-136" value="" style="endArrow=none;html=1;rounded=0;strokeWidth=6;" parent="1" edge="1">
          <mxGeometry width="50" height="50" relative="1" as="geometry">
            <mxPoint x="3060" y="1719" as="sourcePoint" />
            <mxPoint x="3060" y="1679" as="targetPoint" />
          </mxGeometry>
        </mxCell>
        <mxCell id="uQwbevBOTr0eA4SZRO5Q-137" value="" style="endArrow=none;html=1;rounded=0;strokeWidth=6;" parent="1" edge="1">
          <mxGeometry width="50" height="50" relative="1" as="geometry">
            <mxPoint x="3120" y="1719" as="sourcePoint" />
            <mxPoint x="3120" y="1679" as="targetPoint" />
          </mxGeometry>
        </mxCell>
        <mxCell id="uQwbevBOTr0eA4SZRO5Q-138" value="" style="endArrow=none;html=1;rounded=0;strokeWidth=6;" parent="1" edge="1">
          <mxGeometry width="50" height="50" relative="1" as="geometry">
            <mxPoint x="3180" y="1719" as="sourcePoint" />
            <mxPoint x="3180" y="1679" as="targetPoint" />
          </mxGeometry>
        </mxCell>
        <mxCell id="uQwbevBOTr0eA4SZRO5Q-139" value="" style="endArrow=none;html=1;rounded=0;strokeWidth=6;" parent="1" edge="1">
          <mxGeometry width="50" height="50" relative="1" as="geometry">
            <mxPoint x="3240" y="1719" as="sourcePoint" />
            <mxPoint x="3240" y="1679" as="targetPoint" />
          </mxGeometry>
        </mxCell>
        <mxCell id="uQwbevBOTr0eA4SZRO5Q-141" value="" style="endArrow=none;html=1;rounded=0;strokeWidth=6;" parent="1" edge="1">
          <mxGeometry width="50" height="50" relative="1" as="geometry">
            <mxPoint x="3360" y="1719" as="sourcePoint" />
            <mxPoint x="3360" y="1679" as="targetPoint" />
          </mxGeometry>
        </mxCell>
        <mxCell id="uQwbevBOTr0eA4SZRO5Q-142" value="" style="endArrow=none;html=1;rounded=0;strokeWidth=6;" parent="1" edge="1">
          <mxGeometry width="50" height="50" relative="1" as="geometry">
            <mxPoint x="3420" y="1719" as="sourcePoint" />
            <mxPoint x="3420" y="1679" as="targetPoint" />
          </mxGeometry>
        </mxCell>
        <mxCell id="uQwbevBOTr0eA4SZRO5Q-143" value="" style="endArrow=none;html=1;rounded=0;strokeWidth=6;" parent="1" edge="1">
          <mxGeometry width="50" height="50" relative="1" as="geometry">
            <mxPoint x="3480" y="1719" as="sourcePoint" />
            <mxPoint x="3480" y="1679" as="targetPoint" />
          </mxGeometry>
        </mxCell>
        <mxCell id="uQwbevBOTr0eA4SZRO5Q-144" value="" style="endArrow=none;html=1;rounded=0;strokeWidth=6;" parent="1" edge="1">
          <mxGeometry width="50" height="50" relative="1" as="geometry">
            <mxPoint x="3540" y="1719" as="sourcePoint" />
            <mxPoint x="3540" y="1679" as="targetPoint" />
          </mxGeometry>
        </mxCell>
        <mxCell id="uQwbevBOTr0eA4SZRO5Q-145" value="" style="endArrow=none;html=1;rounded=0;strokeWidth=6;" parent="1" edge="1">
          <mxGeometry width="50" height="50" relative="1" as="geometry">
            <mxPoint x="3600" y="1719" as="sourcePoint" />
            <mxPoint x="3600" y="1679" as="targetPoint" />
          </mxGeometry>
        </mxCell>
        <mxCell id="uQwbevBOTr0eA4SZRO5Q-146" value="" style="endArrow=none;html=1;rounded=0;strokeWidth=6;" parent="1" edge="1">
          <mxGeometry width="50" height="50" relative="1" as="geometry">
            <mxPoint x="3660" y="1719" as="sourcePoint" />
            <mxPoint x="3660" y="1679" as="targetPoint" />
          </mxGeometry>
        </mxCell>
        <mxCell id="uQwbevBOTr0eA4SZRO5Q-147" value="" style="endArrow=none;html=1;rounded=0;strokeWidth=6;" parent="1" edge="1">
          <mxGeometry width="50" height="50" relative="1" as="geometry">
            <mxPoint x="3720" y="1719" as="sourcePoint" />
            <mxPoint x="3720" y="1679" as="targetPoint" />
          </mxGeometry>
        </mxCell>
        <mxCell id="uQwbevBOTr0eA4SZRO5Q-148" value="" style="endArrow=none;html=1;rounded=0;strokeWidth=6;" parent="1" edge="1">
          <mxGeometry width="50" height="50" relative="1" as="geometry">
            <mxPoint x="3780" y="1719" as="sourcePoint" />
            <mxPoint x="3780" y="1679" as="targetPoint" />
          </mxGeometry>
        </mxCell>
        <mxCell id="uQwbevBOTr0eA4SZRO5Q-149" value="" style="endArrow=none;html=1;rounded=0;strokeWidth=6;" parent="1" edge="1">
          <mxGeometry width="50" height="50" relative="1" as="geometry">
            <mxPoint x="3840" y="1719" as="sourcePoint" />
            <mxPoint x="3840" y="1679" as="targetPoint" />
          </mxGeometry>
        </mxCell>
        <mxCell id="uQwbevBOTr0eA4SZRO5Q-155" value="" style="endArrow=none;html=1;rounded=0;strokeWidth=4;dashed=1;dashPattern=1 1;" parent="1" edge="1">
          <mxGeometry width="50" height="50" relative="1" as="geometry">
            <mxPoint x="3058" y="1419" as="sourcePoint" />
            <mxPoint x="3828" y="1429" as="targetPoint" />
            <Array as="points">
              <mxPoint x="3120" y="1399" />
              <mxPoint x="3178" y="1409" />
              <mxPoint x="3238" y="1629" />
              <mxPoint x="3298" y="1490" />
              <mxPoint x="3358" y="1699" />
              <mxPoint x="3418" y="1349" />
              <mxPoint x="3478" y="1329" />
              <mxPoint x="3538" y="1329" />
              <mxPoint x="3598" y="1429" />
              <mxPoint x="3658" y="1429" />
              <mxPoint x="3718" y="1349" />
              <mxPoint x="3778" y="1429" />
            </Array>
          </mxGeometry>
        </mxCell>
        <mxCell id="uQwbevBOTr0eA4SZRO5Q-157" value="" style="endArrow=classic;startArrow=classic;html=1;rounded=0;fontSize=16;strokeWidth=4;strokeColor=#EBEB00;shadow=1;shadowOpacity=100;shadowOffsetX=0;shadowOffsetY=0;shadowBlur=1;" parent="1" edge="1">
          <mxGeometry width="50" height="50" relative="1" as="geometry">
            <mxPoint x="3297.4999999999995" y="1470" as="sourcePoint" />
            <mxPoint x="3298.5" y="1410" as="targetPoint" />
          </mxGeometry>
        </mxCell>
        <mxCell id="uQwbevBOTr0eA4SZRO5Q-158" value="" style="endArrow=classic;startArrow=classic;html=1;rounded=0;fontSize=16;strokeWidth=4;fontColor=#CC0000;strokeColor=#CC0000;" parent="1" edge="1">
          <mxGeometry width="50" height="50" relative="1" as="geometry">
            <mxPoint x="3598" y="1409" as="sourcePoint" />
            <mxPoint x="3598" y="1259" as="targetPoint" />
          </mxGeometry>
        </mxCell>
        <mxCell id="uQwbevBOTr0eA4SZRO5Q-159" value="" style="endArrow=classic;startArrow=classic;html=1;rounded=0;fontSize=16;strokeWidth=4;fontColor=#CC0000;strokeColor=#CC0000;" parent="1" edge="1">
          <mxGeometry width="50" height="50" relative="1" as="geometry">
            <mxPoint x="3120" y="1380" as="sourcePoint" />
            <mxPoint x="3120" y="1230" as="targetPoint" />
          </mxGeometry>
        </mxCell>
        <mxCell id="uQwbevBOTr0eA4SZRO5Q-167" value="" style="endArrow=none;html=1;rounded=0;strokeWidth=8;" parent="1" edge="1">
          <mxGeometry width="50" height="50" relative="1" as="geometry">
            <mxPoint x="3060" y="1240" as="sourcePoint" />
            <mxPoint x="3828" y="1249" as="targetPoint" />
            <Array as="points">
              <mxPoint x="3120" y="1220" />
              <mxPoint x="3178" y="1229" />
              <mxPoint x="3238" y="1449" />
              <mxPoint x="3300" y="1390" />
              <mxPoint x="3358" y="1700" />
              <mxPoint x="3418" y="1250" />
              <mxPoint x="3478" y="1149" />
              <mxPoint x="3538" y="1149" />
              <mxPoint x="3598" y="1249" />
              <mxPoint x="3658" y="1249" />
              <mxPoint x="3718" y="1169" />
              <mxPoint x="3778" y="1249" />
            </Array>
          </mxGeometry>
        </mxCell>
        <mxCell id="uQwbevBOTr0eA4SZRO5Q-174" value="" style="endArrow=block;html=1;rounded=1;strokeWidth=3;dashed=1;flowAnimation=0;endFill=1;curved=0;" parent="1" edge="1">
          <mxGeometry width="50" height="50" relative="1" as="geometry">
            <mxPoint x="2720" y="1020" as="sourcePoint" />
            <mxPoint x="3360" y="1280" as="targetPoint" />
            <Array as="points">
              <mxPoint x="2720" y="1100" />
              <mxPoint x="3360" y="1100" />
            </Array>
          </mxGeometry>
        </mxCell>
        <mxCell id="uQwbevBOTr0eA4SZRO5Q-187" value="" style="endArrow=classic;html=1;rounded=1;strokeWidth=10;dashed=1;curved=0;strokeColor=#0000CC;exitX=0.5;exitY=1;exitDx=0;exitDy=0;" parent="1" edge="1" source="tjZcxOWp3YzsWdB4Y_JX-78">
          <mxGeometry width="50" height="50" relative="1" as="geometry">
            <mxPoint x="3380" y="1710" as="sourcePoint" />
            <mxPoint x="3380" y="2160" as="targetPoint" />
            <Array as="points">
              <mxPoint x="3360" y="1810" />
              <mxPoint x="3380" y="1810" />
            </Array>
          </mxGeometry>
        </mxCell>
        <mxCell id="uQwbevBOTr0eA4SZRO5Q-188" value="" style="endArrow=classic;html=1;rounded=1;strokeWidth=10;dashed=1;curved=0;strokeColor=#0000CC;" parent="1" edge="1">
          <mxGeometry width="50" height="50" relative="1" as="geometry">
            <mxPoint x="2180" y="1720" as="sourcePoint" />
            <mxPoint x="3330" y="2160" as="targetPoint" />
            <Array as="points">
              <mxPoint x="2180" y="1860" />
              <mxPoint x="3330" y="1850" />
            </Array>
          </mxGeometry>
        </mxCell>
        <mxCell id="uQwbevBOTr0eA4SZRO5Q-189" value="" style="endArrow=none;html=1;rounded=0;strokeWidth=8;" parent="1" edge="1">
          <mxGeometry width="50" height="50" relative="1" as="geometry">
            <mxPoint x="2418" y="669" as="sourcePoint" />
            <mxPoint x="3188" y="679" as="targetPoint" />
            <Array as="points">
              <mxPoint x="2480" y="649" />
              <mxPoint x="2538" y="659" />
              <mxPoint x="2598" y="879" />
              <mxPoint x="2660" y="740" />
              <mxPoint x="2718" y="949" />
              <mxPoint x="2778" y="599" />
              <mxPoint x="2838" y="579" />
              <mxPoint x="2898" y="579" />
              <mxPoint x="2958" y="679" />
              <mxPoint x="3018" y="679" />
              <mxPoint x="3078" y="599" />
              <mxPoint x="3138" y="679" />
            </Array>
          </mxGeometry>
        </mxCell>
        <mxCell id="uQwbevBOTr0eA4SZRO5Q-209" value="\(C_V(p,\cdot)\)" style="text;html=1;align=center;verticalAlign=middle;whiteSpace=wrap;rounded=0;fontSize=42;rotation=-90;" parent="1" vertex="1">
          <mxGeometry x="1671" y="2260" width="290" height="170" as="geometry" />
        </mxCell>
        <mxCell id="uQwbevBOTr0eA4SZRO5Q-214" value="&lt;div&gt;\(L_r(p-r, \delta)+R(d,~\delta)\)&lt;/div&gt;" style="text;html=1;align=center;verticalAlign=middle;whiteSpace=wrap;rounded=0;fontSize=42;rotation=-90;" parent="1" vertex="1">
          <mxGeometry x="1610" y="1410" width="300" height="110" as="geometry" />
        </mxCell>
        <mxCell id="uQwbevBOTr0eA4SZRO5Q-223" value="" style="endArrow=none;html=1;rounded=0;strokeWidth=12;strokeColor=#CC0000;" parent="1" edge="1">
          <mxGeometry width="50" height="50" relative="1" as="geometry">
            <mxPoint x="2100" y="1740" as="sourcePoint" />
            <mxPoint x="2100" y="1660" as="targetPoint" />
          </mxGeometry>
        </mxCell>
        <mxCell id="uQwbevBOTr0eA4SZRO5Q-224" value="" style="endArrow=none;html=1;rounded=0;strokeWidth=12;strokeColor=#CC0000;" parent="1" edge="1">
          <mxGeometry width="50" height="50" relative="1" as="geometry">
            <mxPoint x="3301" y="1741" as="sourcePoint" />
            <mxPoint x="3301" y="1661" as="targetPoint" />
          </mxGeometry>
        </mxCell>
        <mxCell id="uQwbevBOTr0eA4SZRO5Q-230" value="" style="endArrow=block;html=1;rounded=1;strokeWidth=3;dashed=1;flowAnimation=0;endFill=1;curved=0;" parent="1" edge="1">
          <mxGeometry width="50" height="50" relative="1" as="geometry">
            <mxPoint x="2660" y="1000" as="sourcePoint" />
            <mxPoint x="2100" y="1430" as="targetPoint" />
            <Array as="points">
              <mxPoint x="2660" y="1100" />
              <mxPoint x="2100" y="1100" />
            </Array>
          </mxGeometry>
        </mxCell>
        <mxCell id="uQwbevBOTr0eA4SZRO5Q-234" value="" style="endArrow=classic;html=1;rounded=0;strokeWidth=5;" parent="1" edge="1">
          <mxGeometry width="50" height="50" relative="1" as="geometry">
            <mxPoint x="1900" y="2580" as="sourcePoint" />
            <mxPoint x="2780" y="2580" as="targetPoint" />
          </mxGeometry>
        </mxCell>
        <mxCell id="uQwbevBOTr0eA4SZRO5Q-235" value="" style="endArrow=classic;html=1;rounded=0;strokeWidth=5;" parent="1" edge="1">
          <mxGeometry width="50" height="50" relative="1" as="geometry">
            <mxPoint x="1901" y="2581" as="sourcePoint" />
            <mxPoint x="1901" y="2182" as="targetPoint" />
          </mxGeometry>
        </mxCell>
        <mxCell id="uQwbevBOTr0eA4SZRO5Q-236" value="" style="endArrow=none;html=1;rounded=0;strokeWidth=6;" parent="1" edge="1">
          <mxGeometry width="50" height="50" relative="1" as="geometry">
            <mxPoint x="1940" y="2600" as="sourcePoint" />
            <mxPoint x="1940" y="2560" as="targetPoint" />
          </mxGeometry>
        </mxCell>
        <mxCell id="uQwbevBOTr0eA4SZRO5Q-237" value="" style="endArrow=none;html=1;rounded=0;strokeWidth=6;" parent="1" edge="1">
          <mxGeometry width="50" height="50" relative="1" as="geometry">
            <mxPoint x="2000" y="2600" as="sourcePoint" />
            <mxPoint x="2000" y="2560" as="targetPoint" />
          </mxGeometry>
        </mxCell>
        <mxCell id="uQwbevBOTr0eA4SZRO5Q-238" value="" style="endArrow=none;html=1;rounded=0;strokeWidth=6;" parent="1" edge="1">
          <mxGeometry width="50" height="50" relative="1" as="geometry">
            <mxPoint x="2060" y="2600" as="sourcePoint" />
            <mxPoint x="2060" y="2560" as="targetPoint" />
          </mxGeometry>
        </mxCell>
        <mxCell id="uQwbevBOTr0eA4SZRO5Q-239" value="" style="endArrow=none;html=1;rounded=0;strokeWidth=6;" parent="1" edge="1">
          <mxGeometry width="50" height="50" relative="1" as="geometry">
            <mxPoint x="2120" y="2600" as="sourcePoint" />
            <mxPoint x="2120" y="2560" as="targetPoint" />
          </mxGeometry>
        </mxCell>
        <mxCell id="uQwbevBOTr0eA4SZRO5Q-240" value="" style="endArrow=none;html=1;rounded=0;strokeWidth=6;" parent="1" edge="1">
          <mxGeometry width="50" height="50" relative="1" as="geometry">
            <mxPoint x="2240" y="2600" as="sourcePoint" />
            <mxPoint x="2240" y="2560" as="targetPoint" />
          </mxGeometry>
        </mxCell>
        <mxCell id="uQwbevBOTr0eA4SZRO5Q-241" value="" style="endArrow=none;html=1;rounded=0;strokeWidth=6;" parent="1" edge="1">
          <mxGeometry width="50" height="50" relative="1" as="geometry">
            <mxPoint x="2300" y="2600" as="sourcePoint" />
            <mxPoint x="2300" y="2560" as="targetPoint" />
          </mxGeometry>
        </mxCell>
        <mxCell id="uQwbevBOTr0eA4SZRO5Q-242" value="" style="endArrow=none;html=1;rounded=0;strokeWidth=6;" parent="1" edge="1">
          <mxGeometry width="50" height="50" relative="1" as="geometry">
            <mxPoint x="2360" y="2600" as="sourcePoint" />
            <mxPoint x="2360" y="2560" as="targetPoint" />
          </mxGeometry>
        </mxCell>
        <mxCell id="uQwbevBOTr0eA4SZRO5Q-243" value="" style="endArrow=none;html=1;rounded=0;strokeWidth=6;" parent="1" edge="1">
          <mxGeometry width="50" height="50" relative="1" as="geometry">
            <mxPoint x="2420" y="2600" as="sourcePoint" />
            <mxPoint x="2420" y="2560" as="targetPoint" />
          </mxGeometry>
        </mxCell>
        <mxCell id="uQwbevBOTr0eA4SZRO5Q-244" value="" style="endArrow=none;html=1;rounded=0;strokeWidth=6;" parent="1" edge="1">
          <mxGeometry width="50" height="50" relative="1" as="geometry">
            <mxPoint x="2480" y="2600" as="sourcePoint" />
            <mxPoint x="2480" y="2560" as="targetPoint" />
          </mxGeometry>
        </mxCell>
        <mxCell id="uQwbevBOTr0eA4SZRO5Q-245" value="" style="endArrow=none;html=1;rounded=0;strokeWidth=6;" parent="1" edge="1">
          <mxGeometry width="50" height="50" relative="1" as="geometry">
            <mxPoint x="2540" y="2600" as="sourcePoint" />
            <mxPoint x="2540" y="2560" as="targetPoint" />
          </mxGeometry>
        </mxCell>
        <mxCell id="uQwbevBOTr0eA4SZRO5Q-246" value="" style="endArrow=none;html=1;rounded=0;strokeWidth=6;" parent="1" edge="1">
          <mxGeometry width="50" height="50" relative="1" as="geometry">
            <mxPoint x="2600" y="2600" as="sourcePoint" />
            <mxPoint x="2600" y="2560" as="targetPoint" />
          </mxGeometry>
        </mxCell>
        <mxCell id="uQwbevBOTr0eA4SZRO5Q-247" value="" style="endArrow=none;html=1;rounded=0;strokeWidth=6;" parent="1" edge="1">
          <mxGeometry width="50" height="50" relative="1" as="geometry">
            <mxPoint x="2660" y="2600" as="sourcePoint" />
            <mxPoint x="2660" y="2560" as="targetPoint" />
          </mxGeometry>
        </mxCell>
        <mxCell id="uQwbevBOTr0eA4SZRO5Q-248" value="" style="endArrow=none;html=1;rounded=0;strokeWidth=6;" parent="1" edge="1">
          <mxGeometry width="50" height="50" relative="1" as="geometry">
            <mxPoint x="2720" y="2600" as="sourcePoint" />
            <mxPoint x="2720" y="2560" as="targetPoint" />
          </mxGeometry>
        </mxCell>
        <mxCell id="uQwbevBOTr0eA4SZRO5Q-249" value="" style="endArrow=none;html=1;rounded=0;strokeWidth=12;strokeColor=#CC0000;" parent="1" edge="1">
          <mxGeometry width="50" height="50" relative="1" as="geometry">
            <mxPoint x="2180" y="2620" as="sourcePoint" />
            <mxPoint x="2180" y="2540" as="targetPoint" />
          </mxGeometry>
        </mxCell>
        <mxCell id="uQwbevBOTr0eA4SZRO5Q-250" value="&lt;div&gt;&lt;div&gt;&lt;font style=&quot;font-size: 50px;&quot;&gt;\(\text{Cost volume at }p \)&lt;/font&gt;&lt;/div&gt;&lt;/div&gt;&lt;div&gt;&lt;font style=&quot;font-size: 50px;&quot;&gt;&lt;/font&gt;&lt;/div&gt;" style="text;html=1;align=center;verticalAlign=middle;resizable=0;points=[];autosize=1;strokeColor=none;fillColor=none;" parent="1" vertex="1">
          <mxGeometry x="1920" y="2700" width="600" height="70" as="geometry" />
        </mxCell>
        <mxCell id="uQwbevBOTr0eA4SZRO5Q-151" value="" style="endArrow=classic;startArrow=classic;html=1;rounded=0;fontSize=16;strokeWidth=4;strokeColor=#EBEB00;shadow=1;shadowOpacity=100;shadowOffsetX=0;shadowOffsetY=0;shadowBlur=1;" parent="1" edge="1">
          <mxGeometry width="50" height="50" relative="1" as="geometry">
            <mxPoint x="3425.9999999999995" y="1330" as="sourcePoint" />
            <mxPoint x="3427" y="1270" as="targetPoint" />
          </mxGeometry>
        </mxCell>
        <mxCell id="uQwbevBOTr0eA4SZRO5Q-262" value="" style="endArrow=classic;startArrow=classic;html=1;rounded=0;fontSize=16;strokeWidth=4;fontColor=#CC0000;strokeColor=#CC0000;" parent="1" edge="1">
          <mxGeometry width="50" height="50" relative="1" as="geometry">
            <mxPoint x="1920" y="1389" as="sourcePoint" />
            <mxPoint x="1920" y="1239" as="targetPoint" />
          </mxGeometry>
        </mxCell>
        <mxCell id="uQwbevBOTr0eA4SZRO5Q-263" value="" style="endArrow=classic;startArrow=classic;html=1;rounded=0;fontSize=16;strokeWidth=4;strokeColor=#EBEB00;shadow=1;shadowOpacity=100;shadowOffsetX=0;shadowOffsetY=0;shadowBlur=1;" parent="1" edge="1">
          <mxGeometry width="50" height="50" relative="1" as="geometry">
            <mxPoint x="1734" y="945" as="sourcePoint" />
            <mxPoint x="1734" y="885" as="targetPoint" />
          </mxGeometry>
        </mxCell>
        <mxCell id="uQwbevBOTr0eA4SZRO5Q-265" value="\(\text{Penalty }P_2\)" style="text;html=1;align=center;verticalAlign=middle;whiteSpace=wrap;rounded=0;fontSize=42;fontColor=#CC0000;" parent="1" vertex="1">
          <mxGeometry x="1764" y="735" width="260" height="80" as="geometry" />
        </mxCell>
        <mxCell id="uQwbevBOTr0eA4SZRO5Q-270" value="&lt;div&gt;&lt;div&gt;&lt;font style=&quot;font-size: 50px;&quot;&gt;\(\text{Regularized cost curve } L_r \)&lt;/font&gt;&lt;/div&gt;&lt;/div&gt;&lt;div&gt;&lt;div&gt;&lt;font style=&quot;font-size: 50px;&quot;&gt;\(\text{before }p \)&lt;/font&gt;&lt;/div&gt;&lt;font style=&quot;font-size: 50px;&quot;&gt;&lt;/font&gt;&lt;/div&gt;" style="text;html=1;align=center;verticalAlign=middle;whiteSpace=wrap;rounded=0;" parent="1" vertex="1">
          <mxGeometry x="3220" y="760" width="690" height="150" as="geometry" />
        </mxCell>
        <mxCell id="uQwbevBOTr0eA4SZRO5Q-274" value="" style="html=1;shadow=0;dashed=0;align=center;verticalAlign=middle;shape=mxgraph.arrows2.twoWayArrow;dy=0.53;dx=19.52;fillColor=#0000CC;strokeColor=#FFFFFF;rotation=-90;" parent="1" vertex="1">
          <mxGeometry x="2118.75" y="1628.75" width="112.5" height="27.5" as="geometry" />
        </mxCell>
        <mxCell id="tjZcxOWp3YzsWdB4Y_JX-1" value="" style="endArrow=classic;startArrow=classic;html=1;rounded=0;fontSize=16;strokeWidth=4;fontColor=#CC0000;strokeColor=#CC0000;" parent="1" edge="1">
          <mxGeometry width="50" height="50" relative="1" as="geometry">
            <mxPoint x="3240" y="1610" as="sourcePoint" />
            <mxPoint x="3240" y="1460" as="targetPoint" />
          </mxGeometry>
        </mxCell>
        <mxCell id="tjZcxOWp3YzsWdB4Y_JX-7" value="" style="endArrow=classic;html=1;rounded=0;strokeWidth=5;" parent="1" edge="1">
          <mxGeometry width="50" height="50" relative="1" as="geometry">
            <mxPoint x="3060" y="2580" as="sourcePoint" />
            <mxPoint x="3940" y="2580" as="targetPoint" />
          </mxGeometry>
        </mxCell>
        <mxCell id="tjZcxOWp3YzsWdB4Y_JX-8" value="" style="endArrow=classic;html=1;rounded=0;strokeWidth=5;" parent="1" edge="1">
          <mxGeometry width="50" height="50" relative="1" as="geometry">
            <mxPoint x="3061" y="2581" as="sourcePoint" />
            <mxPoint x="3061" y="2182" as="targetPoint" />
          </mxGeometry>
        </mxCell>
        <mxCell id="tjZcxOWp3YzsWdB4Y_JX-9" value="" style="endArrow=none;html=1;rounded=0;strokeWidth=6;" parent="1" edge="1">
          <mxGeometry width="50" height="50" relative="1" as="geometry">
            <mxPoint x="3100" y="2600" as="sourcePoint" />
            <mxPoint x="3100" y="2560" as="targetPoint" />
          </mxGeometry>
        </mxCell>
        <mxCell id="tjZcxOWp3YzsWdB4Y_JX-10" value="" style="endArrow=none;html=1;rounded=0;strokeWidth=6;" parent="1" edge="1">
          <mxGeometry width="50" height="50" relative="1" as="geometry">
            <mxPoint x="3160" y="2600" as="sourcePoint" />
            <mxPoint x="3160" y="2560" as="targetPoint" />
          </mxGeometry>
        </mxCell>
        <mxCell id="tjZcxOWp3YzsWdB4Y_JX-11" value="" style="endArrow=none;html=1;rounded=0;strokeWidth=6;" parent="1" edge="1">
          <mxGeometry width="50" height="50" relative="1" as="geometry">
            <mxPoint x="3220" y="2600" as="sourcePoint" />
            <mxPoint x="3220" y="2560" as="targetPoint" />
          </mxGeometry>
        </mxCell>
        <mxCell id="tjZcxOWp3YzsWdB4Y_JX-12" value="" style="endArrow=none;html=1;rounded=0;strokeWidth=6;" parent="1" edge="1">
          <mxGeometry width="50" height="50" relative="1" as="geometry">
            <mxPoint x="3280" y="2600" as="sourcePoint" />
            <mxPoint x="3280" y="2560" as="targetPoint" />
          </mxGeometry>
        </mxCell>
        <mxCell id="tjZcxOWp3YzsWdB4Y_JX-13" value="" style="endArrow=none;html=1;rounded=0;strokeWidth=6;" parent="1" edge="1">
          <mxGeometry width="50" height="50" relative="1" as="geometry">
            <mxPoint x="3400" y="2600" as="sourcePoint" />
            <mxPoint x="3400" y="2560" as="targetPoint" />
          </mxGeometry>
        </mxCell>
        <mxCell id="tjZcxOWp3YzsWdB4Y_JX-14" value="" style="endArrow=none;html=1;rounded=0;strokeWidth=6;" parent="1" edge="1">
          <mxGeometry width="50" height="50" relative="1" as="geometry">
            <mxPoint x="3460" y="2600" as="sourcePoint" />
            <mxPoint x="3460" y="2560" as="targetPoint" />
          </mxGeometry>
        </mxCell>
        <mxCell id="tjZcxOWp3YzsWdB4Y_JX-15" value="" style="endArrow=none;html=1;rounded=0;strokeWidth=6;" parent="1" edge="1">
          <mxGeometry width="50" height="50" relative="1" as="geometry">
            <mxPoint x="3520" y="2600" as="sourcePoint" />
            <mxPoint x="3520" y="2560" as="targetPoint" />
          </mxGeometry>
        </mxCell>
        <mxCell id="tjZcxOWp3YzsWdB4Y_JX-16" value="" style="endArrow=none;html=1;rounded=0;strokeWidth=6;" parent="1" edge="1">
          <mxGeometry width="50" height="50" relative="1" as="geometry">
            <mxPoint x="3580" y="2600" as="sourcePoint" />
            <mxPoint x="3580" y="2560" as="targetPoint" />
          </mxGeometry>
        </mxCell>
        <mxCell id="tjZcxOWp3YzsWdB4Y_JX-17" value="" style="endArrow=none;html=1;rounded=0;strokeWidth=6;" parent="1" edge="1">
          <mxGeometry width="50" height="50" relative="1" as="geometry">
            <mxPoint x="3640" y="2600" as="sourcePoint" />
            <mxPoint x="3640" y="2560" as="targetPoint" />
          </mxGeometry>
        </mxCell>
        <mxCell id="tjZcxOWp3YzsWdB4Y_JX-18" value="" style="endArrow=none;html=1;rounded=0;strokeWidth=6;" parent="1" edge="1">
          <mxGeometry width="50" height="50" relative="1" as="geometry">
            <mxPoint x="3700" y="2600" as="sourcePoint" />
            <mxPoint x="3700" y="2560" as="targetPoint" />
          </mxGeometry>
        </mxCell>
        <mxCell id="tjZcxOWp3YzsWdB4Y_JX-19" value="" style="endArrow=none;html=1;rounded=0;strokeWidth=6;" parent="1" edge="1">
          <mxGeometry width="50" height="50" relative="1" as="geometry">
            <mxPoint x="3760" y="2600" as="sourcePoint" />
            <mxPoint x="3760" y="2560" as="targetPoint" />
          </mxGeometry>
        </mxCell>
        <mxCell id="tjZcxOWp3YzsWdB4Y_JX-20" value="" style="endArrow=none;html=1;rounded=0;strokeWidth=6;" parent="1" edge="1">
          <mxGeometry width="50" height="50" relative="1" as="geometry">
            <mxPoint x="3820" y="2600" as="sourcePoint" />
            <mxPoint x="3820" y="2560" as="targetPoint" />
          </mxGeometry>
        </mxCell>
        <mxCell id="tjZcxOWp3YzsWdB4Y_JX-21" value="" style="endArrow=none;html=1;rounded=0;strokeWidth=6;" parent="1" edge="1">
          <mxGeometry width="50" height="50" relative="1" as="geometry">
            <mxPoint x="3880" y="2600" as="sourcePoint" />
            <mxPoint x="3880" y="2560" as="targetPoint" />
          </mxGeometry>
        </mxCell>
        <mxCell id="tjZcxOWp3YzsWdB4Y_JX-22" value="" style="endArrow=none;html=1;rounded=0;strokeWidth=4;curved=0;dashed=1;" parent="1" edge="1">
          <mxGeometry width="50" height="50" relative="1" as="geometry">
            <mxPoint x="3100" y="2210" as="sourcePoint" />
            <mxPoint x="3880" y="2200" as="targetPoint" />
            <Array as="points">
              <mxPoint x="3160" y="2240" />
              <mxPoint x="3220" y="2200" />
              <mxPoint x="3280" y="2480" />
              <mxPoint x="3340" y="2530" />
              <mxPoint x="3390" y="2470" />
              <mxPoint x="3460" y="2140" />
              <mxPoint x="3520" y="2170" />
              <mxPoint x="3580" y="2120" />
              <mxPoint x="3640" y="2110" />
              <mxPoint x="3700" y="2220" />
              <mxPoint x="3760" y="2280" />
              <mxPoint x="3820" y="2220" />
            </Array>
          </mxGeometry>
        </mxCell>
        <mxCell id="tjZcxOWp3YzsWdB4Y_JX-23" value="" style="endArrow=none;html=1;rounded=0;strokeWidth=8;" parent="1" edge="1">
          <mxGeometry width="50" height="50" relative="1" as="geometry">
            <mxPoint x="3100" y="2030" as="sourcePoint" />
            <mxPoint x="3880" y="2020" as="targetPoint" />
            <Array as="points">
              <mxPoint x="3160" y="2060" />
              <mxPoint x="3220" y="2020" />
              <mxPoint x="3280" y="2410" />
              <mxPoint x="3340" y="2420" />
              <mxPoint x="3390" y="2470" />
              <mxPoint x="3460" y="1980" />
              <mxPoint x="3520" y="1990" />
              <mxPoint x="3580" y="1940" />
              <mxPoint x="3640" y="1930" />
              <mxPoint x="3700" y="2040" />
              <mxPoint x="3760" y="2100" />
              <mxPoint x="3820" y="2040" />
            </Array>
          </mxGeometry>
        </mxCell>
        <mxCell id="tjZcxOWp3YzsWdB4Y_JX-25" value="\(L_r(p, \cdot)\)" style="text;html=1;align=center;verticalAlign=middle;whiteSpace=wrap;rounded=0;fontSize=42;" parent="1" vertex="1">
          <mxGeometry x="2870" y="2330" width="180" height="70" as="geometry" />
        </mxCell>
        <mxCell id="tjZcxOWp3YzsWdB4Y_JX-27" value="" style="endArrow=none;html=1;rounded=0;strokeWidth=12;strokeColor=#CC0000;" parent="1" edge="1">
          <mxGeometry width="50" height="50" relative="1" as="geometry">
            <mxPoint x="3340" y="2620" as="sourcePoint" />
            <mxPoint x="3340" y="2540" as="targetPoint" />
          </mxGeometry>
        </mxCell>
        <mxCell id="tjZcxOWp3YzsWdB4Y_JX-29" value="&lt;div&gt;&lt;div&gt;&lt;font style=&quot;font-size: 50px;&quot;&gt;\(\text{Regularized cost curve } L_r \text{ at }p\)&lt;/font&gt;&lt;/div&gt;&lt;/div&gt;" style="text;html=1;align=center;verticalAlign=middle;whiteSpace=wrap;rounded=0;" parent="1" vertex="1">
          <mxGeometry x="2860" y="2675" width="1080" height="100" as="geometry" />
        </mxCell>
        <mxCell id="tjZcxOWp3YzsWdB4Y_JX-73" value="&lt;div&gt;\(L_r(p-r, \delta)+R(d+1,~\delta)\)&lt;/div&gt;" style="text;html=1;align=center;verticalAlign=middle;whiteSpace=wrap;rounded=0;fontSize=42;rotation=-90;" parent="1" vertex="1">
          <mxGeometry x="2810" y="1410" width="300" height="110" as="geometry" />
        </mxCell>
        <mxCell id="tjZcxOWp3YzsWdB4Y_JX-74" value="&lt;div&gt;\(L_r(p-r, \cdot)\)&lt;/div&gt;" style="text;html=1;align=center;verticalAlign=middle;whiteSpace=wrap;rounded=0;fontSize=42;rotation=-90;" parent="1" vertex="1">
          <mxGeometry x="2170" y="760" width="300" height="110" as="geometry" />
        </mxCell>
        <mxCell id="tjZcxOWp3YzsWdB4Y_JX-75" value="&lt;div&gt;\(\dots\)&lt;/div&gt;" style="text;html=1;align=center;verticalAlign=middle;whiteSpace=wrap;rounded=0;fontSize=42;rotation=0;" parent="1" vertex="1">
          <mxGeometry x="2640" y="1410" width="300" height="110" as="geometry" />
        </mxCell>
        <mxCell id="tjZcxOWp3YzsWdB4Y_JX-76" value="" style="endArrow=classic;startArrow=classic;html=1;rounded=0;fontSize=16;strokeWidth=4;fontColor=#CC0000;strokeColor=#CC0000;" parent="1" edge="1">
          <mxGeometry width="50" height="50" relative="1" as="geometry">
            <mxPoint x="3818" y="1419" as="sourcePoint" />
            <mxPoint x="3818" y="1269" as="targetPoint" />
          </mxGeometry>
        </mxCell>
        <mxCell id="uQwbevBOTr0eA4SZRO5Q-279" value="" style="html=1;shadow=0;dashed=0;align=center;verticalAlign=middle;shape=mxgraph.arrows2.twoWayArrow;dy=0.53;dx=19.52;fillColor=#0000CC;strokeColor=#FFFFFF;rotation=-90;" parent="1" vertex="1">
          <mxGeometry x="3283.5" y="2460" width="112.5" height="27.5" as="geometry" />
        </mxCell>
        <mxCell id="tjZcxOWp3YzsWdB4Y_JX-78" value="" style="ellipse;whiteSpace=wrap;html=1;aspect=fixed;fillColor=none;strokeColor=#0000FF;strokeWidth=3;shadow=1;shadowColor=#FFFFFF;shadowOpacity=100;shadowOffsetX=0;shadowOffsetY=0;" parent="1" vertex="1">
          <mxGeometry x="3330" y="1668" width="53" height="53" as="geometry" />
        </mxCell>
        <mxCell id="tjZcxOWp3YzsWdB4Y_JX-82" value="" style="html=1;shadow=0;dashed=0;align=center;verticalAlign=middle;shape=mxgraph.arrows2.twoWayArrow;dy=0.53;dx=19.52;fillColor=#0000CC;strokeColor=#FFFFFF;rotation=-90;" parent="1" vertex="1">
          <mxGeometry x="3443.25" y="2063.25" width="150" height="27.5" as="geometry" />
        </mxCell>
        <mxCell id="tjZcxOWp3YzsWdB4Y_JX-83" value="" style="html=1;shadow=0;dashed=0;align=center;verticalAlign=middle;shape=mxgraph.arrows2.twoWayArrow;dy=0.53;dx=19.52;fillColor=#0000CC;strokeColor=#FFFFFF;rotation=-90;" parent="1" vertex="1">
          <mxGeometry x="3683.25" y="2173.25" width="150" height="27.5" as="geometry" />
        </mxCell>
        <mxCell id="tjZcxOWp3YzsWdB4Y_JX-84" value="" style="html=1;shadow=0;dashed=0;align=center;verticalAlign=middle;shape=mxgraph.arrows2.twoWayArrow;dy=0.53;dx=19.52;fillColor=#0000CC;strokeColor=#FFFFFF;rotation=-90;" parent="1" vertex="1">
          <mxGeometry x="3083.25" y="2133.25" width="150" height="27.5" as="geometry" />
        </mxCell>
        <mxCell id="tjZcxOWp3YzsWdB4Y_JX-85" value="" style="ellipse;whiteSpace=wrap;html=1;aspect=fixed;fillColor=none;strokeColor=#0000FF;strokeWidth=3;shadow=1;shadowColor=#FFFFFF;shadowOpacity=100;shadowOffsetX=0;shadowOffsetY=0;" parent="1" vertex="1">
          <mxGeometry x="3360" y="2438" width="53" height="53" as="geometry" />
        </mxCell>
        <mxCell id="jDUtmc2_KI0zMrj57jFm-8" value="" style="endArrow=none;html=1;rounded=0;strokeWidth=12;strokeColor=#CC0000;" parent="1" edge="1">
          <mxGeometry width="50" height="50" relative="1" as="geometry">
            <mxPoint x="2660" y="1060" as="sourcePoint" />
            <mxPoint x="2660" y="980" as="targetPoint" />
          </mxGeometry>
        </mxCell>
        <mxCell id="uQwbevBOTr0eA4SZRO5Q-228" value="\(d\)" style="text;html=1;align=center;verticalAlign=middle;whiteSpace=wrap;rounded=0;fontSize=42;rotation=0;fillColor=default;" parent="1" vertex="1">
          <mxGeometry x="2651" y="1060" width="30" height="40" as="geometry" />
        </mxCell>
        <mxCell id="Yp5ibpQ1P30fX8xo4wsr-1" value="" style="endArrow=none;html=1;rounded=0;strokeWidth=4;curved=0;dashed=1;" parent="1" edge="1">
          <mxGeometry width="50" height="50" relative="1" as="geometry">
            <mxPoint x="1940" y="2210" as="sourcePoint" />
            <mxPoint x="2720" y="2200" as="targetPoint" />
            <Array as="points">
              <mxPoint x="2000" y="2240" />
              <mxPoint x="2060" y="2200" />
              <mxPoint x="2120" y="2480" />
              <mxPoint x="2180" y="2530" />
              <mxPoint x="2230" y="2470" />
              <mxPoint x="2300" y="2140" />
              <mxPoint x="2360" y="2170" />
              <mxPoint x="2420" y="2120" />
              <mxPoint x="2480" y="2110" />
              <mxPoint x="2540" y="2220" />
              <mxPoint x="2600" y="2280" />
              <mxPoint x="2660" y="2220" />
            </Array>
          </mxGeometry>
        </mxCell>
        <mxCell id="Yp5ibpQ1P30fX8xo4wsr-3" value="\(d\)" style="text;html=1;align=center;verticalAlign=middle;whiteSpace=wrap;rounded=0;fontSize=42;rotation=0;fillColor=none;" parent="1" vertex="1">
          <mxGeometry x="2088.75" y="1754" width="30" height="40" as="geometry" />
        </mxCell>
        <mxCell id="Yp5ibpQ1P30fX8xo4wsr-4" value="\(d\)" style="text;html=1;align=center;verticalAlign=middle;whiteSpace=wrap;rounded=0;fontSize=42;rotation=0;fillColor=none;" parent="1" vertex="1">
          <mxGeometry x="3290" y="1754" width="30" height="40" as="geometry" />
        </mxCell>
        <mxCell id="Yp5ibpQ1P30fX8xo4wsr-5" value="\(d\)" style="text;html=1;align=center;verticalAlign=middle;whiteSpace=wrap;rounded=0;fontSize=42;rotation=0;fillColor=none;" parent="1" vertex="1">
          <mxGeometry x="3330" y="2635" width="30" height="40" as="geometry" />
        </mxCell>
        <mxCell id="Yp5ibpQ1P30fX8xo4wsr-6" value="\(d\)" style="text;html=1;align=center;verticalAlign=middle;whiteSpace=wrap;rounded=0;fontSize=42;rotation=0;fillColor=none;" parent="1" vertex="1">
          <mxGeometry x="2170" y="2640" width="30" height="40" as="geometry" />
        </mxCell>
        <mxCell id="anaQYyQ8jXdlayR_0g4W-1" value="&lt;div&gt;\(\min_\delta (L_r(p-r,\delta)\)&lt;/div&gt;&lt;div&gt;\(+R(d,\delta))\)&lt;/div&gt;" style="text;html=1;align=center;verticalAlign=middle;whiteSpace=wrap;rounded=0;fontSize=42;strokeColor=none;fontColor=#0000CC;" vertex="1" parent="1">
          <mxGeometry x="1747.25" y="1940" width="400" height="90" as="geometry" />
        </mxCell>
        <mxCell id="anaQYyQ8jXdlayR_0g4W-2" value="" style="html=1;shadow=0;dashed=0;align=center;verticalAlign=middle;shape=mxgraph.arrows2.twoWayArrow;dy=0.53;dx=19.52;fillColor=#0000CC;strokeColor=#FFFFFF;rotation=-90;" vertex="1" parent="1">
          <mxGeometry x="1660" y="1958.75" width="112.5" height="27.5" as="geometry" />
        </mxCell>
        <mxCell id="anaQYyQ8jXdlayR_0g4W-5" value="&lt;font color=&quot;#000000&quot;&gt;\(\text{Legend}\)&lt;/font&gt;" style="text;html=1;align=center;verticalAlign=middle;whiteSpace=wrap;rounded=0;fontSize=42;fontColor=#CC0000;" vertex="1" parent="1">
          <mxGeometry x="1784" y="630" width="260" height="80" as="geometry" />
        </mxCell>
      </root>
    </mxGraphModel>
  </diagram>
</mxfile>
